:SAMPLES-PER-SECOND 24
:FULLY-SPECIFIED
:DEGREES
230
root  -2.51511 40.4874 -2.19239 101.757 -10.2129 -71.2963
RightUpLeg  3.43245 -24.1264 -51.8598
RightLeg  9.97815 29.0977 1.41098
RightFoot  -22.6631 1.87914 20.3364
RightToes  -1.74623e-010 0 -2.59999e-017
Spine  -0.349905 0.676302 -6.52703
Spine1  5.17231 -6.46586 32.8546
HEad  -7.33376 -39.0794 35.6875
LeftShoulder1  1.826 -4.17233 -17.127
LeftArm  18.5756 5.47986 -59.5471
LeftForeArm  165.856 -71.5828 -150.429
LeftHand  0.117397 7.29739 8.82794
RightShoulder  3.64542 5.88102 32.965
RightArm  10.9256 -27.5862 17.8292
RightForeArm  142.625 59.902 160.418
RightHand  -0.798149 0.844756 -14.9401
LeftUpLeg  -41.8427 38.4482 49.1057
LeftLeg  3.20581 19.0005 4.04582
LeftFoot  5.0385 -1.17374 7.92774
LeftToes  -6.27559e-011 -2.10356e-011 8.24929e-012
231
root  -2.48182 40.1356 -2.66998 101.542 -9.33771 -70.5868
RightUpLeg  1.69394 -25.9537 -52.2156
RightLeg  16.7876 29.7129 6.41792
RightFoot  -22.9656 1.86424 19.6788
RightToes  -1.74623e-010 0 -2.59999e-017
Spine  -0.432759 0.863469 -6.72821
Spine1  7.05091 -6.49365 32.1542
HEad  -6.64235 -38.8241 36.4206
LeftShoulder1  2.03665 -4.22455 -19.8927
LeftArm  13.633 10.7005 -52.4964
LeftForeArm  164.331 -71.6079 -150.184
LeftHand  0.167825 7.5207 10.5335
RightShoulder  3.63543 5.83929 33.032
RightArm  10.6651 -25.7328 17.083
RightForeArm  140.48 60.2224 159.993
RightHand  -0.82728 1.16233 -14.7508
LeftUpLeg  -43.5845 39.3443 49.2935
LeftLeg  4.25141 19.1341 4.03364
LeftFoot  2.43334 -0.867977 7.05397
LeftToes  -6.27559e-011 -2.10356e-011 8.24929e-012
232
root  -2.49584 39.8699 -3.10729 100.824 -9.8275 -69.9439
RightUpLeg  1.16703 -22.9218 -50.7516
RightLeg  16.4104 27.2377 4.7232
RightFoot  -22.8955 1.87647 19.9097
RightToes  -1.74623e-010 0 -2.59999e-017
Spine  0.0484721 1.35487 -7.56505
Spine1  6.82103 -6.09732 32.1686
HEad  -4.61123 -37.6169 36.27
LeftShoulder1  2.17196 -4.23177 -21.7355
LeftArm  14.0764 11.3866 -49.5953
LeftForeArm  153.51 -75.6072 -139.659
LeftHand  0.149176 7.0958 11.6761
RightShoulder  3.70999 5.89472 33.5938
RightArm  10.9766 -27.2274 15.5028
RightForeArm  139.165 60.6671 159.537
RightHand  -0.828396 1.29357 -14.491
LeftUpLeg  -43.2252 38.9353 48.8712
LeftLeg  2.6759 19.4972 3.50341
LeftFoot  0.239875 -0.742082 7.29063
LeftToes  -6.27559e-011 -2.10356e-011 8.24929e-012
233
root  -2.34365 39.7749 -3.31488 100.893 -10.4482 -69.9321
RightUpLeg  -1.87388 -23.476 -48.9693
RightLeg  18.7857 20.9139 5.98705
RightFoot  -21.9514 1.69503 19.6854
RightToes  -1.74623e-010 0 -2.59999e-017
Spine  0.805952 1.73023 -8.33281
Spine1  6.41229 -5.91348 32.8248
HEad  -3.28865 -33.8268 35.9967
LeftShoulder1  2.15753 -4.1928 -21.6855
LeftArm  14.244 11.7188 -48.7081
LeftForeArm  135.565 -78.8183 -122.522
LeftHand  0.0528122 6.06355 12.2095
RightShoulder  3.79983 5.99062 34.1379
RightArm  10.7108 -27.4656 16.6039
RightForeArm  141.052 61.5943 158.965
RightHand  -0.722679 1.22646 -12.7899
LeftUpLeg  -43.0705 37.5731 48.7017
LeftLeg  1.924 20.9306 4.27248
LeftFoot  0.15343 -0.744697 7.38609
LeftToes  -6.27559e-011 -2.10356e-011 8.24929e-012
234
root  -2.02441 40.0585 -3.66151 100.059 -11.5874 -70.4266
RightUpLeg  -8.69949 -26.9512 -47.2433
RightLeg  35.4334 16.2366 11.9714
RightFoot  -20.8885 1.53802 19.9495
RightToes  -1.74623e-010 0 -2.59999e-017
Spine  1.88215 2.04391 -8.47291
Spine1  8.0143 -6.22623 32.3343
HEad  -2.3546 -30.7741 35.1749
LeftShoulder1  2.14397 -4.33126 -20.9759
LeftArm  13.3872 10.0341 -47.4415
LeftForeArm  109.911 -80.3675 -98.1344
LeftHand  0.00074754 5.52955 13.0789
RightShoulder  3.84423 6.04698 34.3643
RightArm  8.99597 -26.1803 18.7465
RightForeArm  143.952 61.7508 159.107
RightHand  -0.575606 0.975315 -10.6073
LeftUpLeg  -41.718 38.0273 48.1768
LeftLeg  -0.178162 20.2186 2.62689
LeftFoot  2.25496 -0.98964 8.15805
LeftToes  -6.27559e-011 -2.10356e-011 8.24929e-012
235
root  -1.83844 40.3848 -4.10362 98.3625 -13.4144 -71.5442
RightUpLeg  -16.6174 -30.0157 -45.9375
RightLeg  58.1598 11.3993 18.615
RightFoot  -19.8294 1.32591 19.5187
RightToes  -1.74623e-010 0 -2.59999e-017
Spine  2.54462 2.67534 -7.78155
Spine1  9.88539 -6.12527 30.9666
HEad  -0.776279 -31.133 33.6262
LeftShoulder1  2.20437 -4.4027 -21.5257
LeftArm  14.2752 6.32079 -45.3604
LeftForeArm  76.4572 -79.5001 -66.2238
LeftHand  -0.0403522 5.1805 15.7815
RightShoulder  3.88408 6.08444 34.6196
RightArm  7.01987 -26.7443 19.2265
RightForeArm  145.987 60.855 160.001
RightHand  -0.458638 0.448949 -9.19997
LeftUpLeg  -38.7399 38.3715 48.0654
LeftLeg  -1.8002 19.4898 1.06365
LeftFoot  3.44822 -1.15298 8.70395
LeftToes  -6.27559e-011 -2.10356e-011 8.24929e-012
236
root  -1.71398 40.447 -4.22547 97.3647 -15.4429 -72.9993
RightUpLeg  -24.9376 -35.62 -43.8177
RightLeg  79.9741 3.54939 21.6958
RightFoot  -19.0819 1.09714 18.0181
RightToes  -1.74623e-010 0 -2.59999e-017
Spine  3.22733 2.99905 -6.64125
Spine1  10.07 -5.99418 30.9022
HEad  -0.115111 -32.7778 32.6514
LeftShoulder1  2.25662 -4.26506 -22.7616
LeftArm  14.7384 5.18571 -44.3166
LeftForeArm  53.8072 -76.4483 -45.1556
LeftHand  -0.069449 5.01634 19.4839
RightShoulder  3.91773 6.11073 34.8558
RightArm  5.63557 -27.1372 19.2726
RightForeArm  146.825 60.2434 160.537
RightHand  -0.3817 -0.0856086 -8.39101
LeftUpLeg  -35.1382 35.4673 48.4759
LeftLeg  -3.02545 22.5095 1.98342
LeftFoot  3.67095 -1.12409 8.34579
LeftToes  -6.27559e-011 -2.10356e-011 8.24929e-012
237
root  -1.467 40.5425 -4.50176 97.1196 -18.0426 -74.7884
RightUpLeg  -34.7081 -41.793 -39.9991
RightLeg  101.84 -5.6407 22.6846
RightFoot  -19.3339 1.16506 18.3905
RightToes  -1.74623e-010 0 -2.59999e-017
Spine  4.92067 2.96522 -5.82945
Spine1  8.88601 -6.07908 31.0775
HEad  -1.74266 -33.9812 32.73
LeftShoulder1  2.26308 -4.31307 -22.6633
LeftArm  14.0703 6.61691 -45.1629
LeftForeArm  42.774 -73.4054 -35.2321
LeftHand  -0.0376019 5.21442 21.7028
RightShoulder  3.94502 6.14089 35.0092
RightArm  4.86997 -25.9544 19.5413
RightForeArm  148.393 59.1311 161.459
RightHand  -0.311119 -0.446565 -7.29669
LeftUpLeg  -32.2588 32.2393 48.4934
LeftLeg  -3.34833 26.3892 3.25989
LeftFoot  4.08043 -1.09334 7.8766
LeftToes  -6.27559e-011 -2.10356e-011 8.24929e-012
238
root  -1.22031 40.6442 -4.81778 95.9029 -20.1304 -75.8757
RightUpLeg  -42.9907 -47.1348 -33.7132
RightLeg  118.968 -15.4657 24.4545
RightFoot  -18.0516 1.11657 20.98
RightToes  -1.74623e-010 0 -2.59999e-017
Spine  8.09806 2.50906 -3.26459
Spine1  6.86093 -5.97365 30.0521
HEad  -4.06388 -35.3348 32.9566
LeftShoulder1  2.30133 -4.61094 -22.0377
LeftArm  15.512 5.89166 -45.89
LeftForeArm  35.029 -70.1783 -28.6899
LeftHand  -0.16287 4.59932 23.3093
RightShoulder  4.016 6.21727 35.411
RightArm  4.68758 -25.0538 18.9398
RightForeArm  150.618 56.9363 163.05
RightHand  -0.236657 -1.10394 -6.30331
LeftUpLeg  -30.3385 31.3314 47.9896
LeftLeg  -3.01459 26.7143 3.15414
LeftFoot  4.14616 -1.12596 8.08355
LeftToes  -6.27559e-011 -2.10356e-011 8.24929e-012
239
root  -1.19485 40.6702 -4.57694 92.4692 -20.4238 -76.3549
RightUpLeg  -44.0504 -50.3427 -28.4688
RightLeg  123.725 -20.8765 26.8839
RightFoot  -16.4194 0.910633 22.789
RightToes  -1.74623e-010 0 -2.59999e-017
Spine  12.8821 1.64926 1.61373
Spine1  4.78518 -5.81056 29.1495
HEad  -5.6729 -37.049 33.1223
LeftShoulder1  2.38337 -4.83507 -22.2724
LeftArm  19.0967 1.67321 -46.4828
LeftForeArm  26.5691 -64.9831 -22.0401
LeftHand  -0.45867 3.34045 25.7101
RightShoulder  4.11414 6.31388 35.9923
RightArm  4.69383 -24.1487 17.7856
RightForeArm  150.514 55.6226 163.811
RightHand  -0.191228 -2.04785 -6.36381
LeftUpLeg  -27.8021 30.8775 48.3478
LeftLeg  -1.68201 25.1521 3.20852
LeftFoot  2.6181 -0.955539 7.66278
LeftToes  -6.27559e-011 -2.10356e-011 8.24929e-012
